<?xml version="1.0" standalone="no"?>
<!DOCTYPE svg PUBLIC "-//W3C//DTD SVG 20010904//EN"
 "http://www.w3.org/TR/2001/REC-SVG-20010904/DTD/svg10.dtd">
<svg version="1.0" xmlns="http://www.w3.org/2000/svg"
 width="700.000000pt" height="700.000000pt" viewBox="0 0 700.000000 700.000000"
 preserveAspectRatio="xMidYMid meet">
<metadata>
Created by potrace 1.14, written by Peter Selinger 2001-2017
</metadata>
<g transform="translate(0.000000,700.000000) scale(0.100000,-0.100000)"
fill="#000000" stroke="none">
<path d="M1205 6860 c-22 -11 -47 -18 -56 -15 -21 7 -565 -563 -551 -577 6 -6
0 -28 -17 -56 l-26 -47 0 -2955 0 -2955 23 -47 c30 -60 89 -108 155 -125 42
-11 501 -13 2497 -13 2715 0 2511 -5 2590 66 21 19 48 54 59 78 l21 42 0 2943
c0 2205 -3 2953 -12 2982 -15 52 -68 113 -121 138 l-43 21 -2328 0 c-1416 0
-2326 4 -2324 9 2 5 59 68 126 140 l124 131 2377 -2 2378 -3 49 -30 c30 -19
60 -49 79 -79 l30 -49 3 -2934 2 -2933 54 0 c102 0 185 47 231 132 l30 53 3
2940 c2 3237 7 2999 -59 3079 -18 21 -55 49 -83 62 l-51 24 -2560 0 c-2541 0
-2561 0 -2600 -20z m-171 -986 c9 -3 16 -14 16 -23 0 -13 -8 -15 -45 -13 -63
5 -61 -20 3 -39 46 -14 47 -15 47 -54 0 -34 -4 -42 -29 -54 -37 -18 -109 -4
-114 22 -3 15 2 17 37 11 22 -4 47 -4 55 -1 24 10 8 34 -26 41 -64 13 -86 58
-48 96 20 20 71 27 104 14z m124 -37 c3 -36 5 -38 35 -35 29 3 32 6 35 41 3
32 7 37 28 37 24 0 24 -1 24 -95 0 -95 0 -95 -25 -95 -22 0 -25 4 -25 40 0 39
-1 40 -35 40 -34 0 -35 -1 -35 -40 0 -36 -2 -40 -25 -40 -25 0 -25 0 -25 96 0
93 1 95 23 92 18 -2 23 -10 25 -41z m309 -47 c17 -47 32 -88 32 -92 1 -5 -10
-8 -24 -8 -16 0 -25 6 -25 15 0 11 -12 15 -45 15 -33 0 -45 -4 -45 -15 0 -9
-9 -15 -25 -15 -14 0 -25 3 -25 8 0 8 58 160 66 174 3 5 18 8 32 6 23 -3 31
-14 59 -88z m178 80 c33 -13 42 -37 24 -69 -14 -24 -13 -30 9 -68 l24 -43 -25
0 c-18 0 -31 10 -46 35 -11 19 -27 35 -36 35 -11 0 -15 -10 -15 -35 0 -31 -3
-35 -25 -35 -25 0 -25 0 -25 95 l0 95 44 0 c25 0 56 -4 71 -10z m223 -12 c3
-15 -4 -18 -43 -18 -39 0 -46 -3 -43 -17 2 -13 14 -19 41 -21 53 -5 51 -32 -3
-32 -36 0 -40 -2 -40 -25 0 -23 4 -25 45 -25 33 0 45 -4 45 -15 0 -12 -14 -15
-70 -15 l-70 0 0 95 0 96 67 -3 c55 -2 68 -6 71 -20z m247 5 c4 -10 20 -53 36
-95 l28 -78 -25 0 c-13 0 -27 7 -30 15 -8 21 -73 20 -88 -1 -7 -9 -21 -14 -33
-12 -20 3 -19 6 15 96 32 85 37 92 62 92 17 0 31 -7 35 -17z m177 -45 l33 -62
3 62 c3 58 4 62 27 62 25 0 25 -1 25 -95 l0 -95 -29 0 c-26 0 -34 8 -63 62
l-33 62 -3 -62 c-3 -54 -6 -62 -22 -62 -18 0 -20 7 -20 95 0 94 0 95 24 95 20
0 31 -12 58 -62z m286 29 c19 -19 25 -36 25 -68 0 -62 -34 -89 -114 -89 l-59
0 0 96 0 97 61 -6 c48 -4 68 -11 87 -30z m308 2 c34 -32 34 -100 -1 -134 -21
-22 -33 -25 -90 -25 l-65 0 0 88 c0 49 3 92 8 96 4 5 33 6 65 3 42 -4 66 -12
83 -28z m114 -64 c0 -95 0 -95 -25 -95 -25 0 -25 0 -25 95 0 95 0 95 25 95 25
0 25 0 25 -95z m178 70 c2 -18 -2 -20 -43 -17 -62 5 -63 -21 0 -37 69 -17 84
-71 29 -107 -34 -23 -114 -11 -114 16 0 15 7 18 48 17 58 -2 66 22 12 36 -49
12 -60 24 -60 63 0 41 21 55 80 51 36 -2 46 -6 48 -22z m196 19 c9 -3 16 -14
16 -23 0 -13 -8 -16 -42 -13 -47 5 -68 -13 -68 -58 0 -40 32 -64 75 -57 29 5
35 3 35 -13 0 -42 -113 -32 -145 13 -8 12 -15 39 -15 60 0 70 75 117 144 91z
m209 -14 c52 -41 44 -136 -14 -165 -79 -42 -161 21 -145 109 9 45 47 76 96 76
22 0 48 -8 63 -20z m118 -53 l26 -68 25 68 c19 52 30 69 46 71 28 4 28 0 -9
-102 -31 -83 -33 -86 -63 -86 -31 0 -33 3 -64 89 -18 48 -32 92 -32 95 0 4 10
6 22 4 18 -2 28 -18 49 -71z m279 53 c0 -17 -7 -20 -41 -20 -33 0 -40 -3 -37
-17 2 -13 14 -19 41 -21 53 -5 51 -32 -3 -32 -36 0 -40 -2 -40 -25 0 -23 4
-25 45 -25 33 0 45 -4 45 -15 0 -12 -14 -15 -70 -15 l-70 0 0 95 0 95 65 0
c58 0 65 -2 65 -20z m170 7 c29 -14 38 -58 16 -76 -12 -10 -11 -18 11 -56 l25
-45 -25 0 c-18 0 -31 10 -46 35 -11 19 -27 35 -36 35 -11 0 -15 -10 -15 -35 0
-31 -3 -35 -25 -35 -25 0 -25 0 -25 95 l0 95 48 0 c26 0 58 -6 72 -13z m298
-3 c25 -17 29 -56 8 -73 -12 -10 -11 -18 10 -48 30 -44 30 -53 2 -53 -15 1
-30 13 -43 33 -11 17 -28 33 -38 35 -14 3 -17 -4 -17 -32 0 -32 -3 -36 -25
-36 -25 0 -25 1 -25 88 0 49 3 92 7 95 13 13 99 7 121 -9z m212 -4 c0 -17 -7
-20 -40 -20 -33 0 -40 -3 -40 -20 0 -16 7 -20 35 -20 24 0 35 -5 35 -15 0 -10
-11 -15 -35 -15 -31 0 -35 -3 -35 -25 0 -22 4 -25 40 -25 29 0 40 -4 40 -15 0
-12 -14 -15 -65 -15 l-65 0 0 95 0 95 65 0 c58 0 65 -2 65 -20z m184 14 c9 -3
16 -14 16 -24 0 -15 -6 -17 -40 -13 -51 7 -70 -8 -70 -57 0 -49 19 -64 70 -57
31 4 40 2 40 -9 0 -20 -49 -37 -85 -30 -49 10 -75 43 -75 96 0 48 11 70 45 88
22 13 74 15 99 6z m106 -89 c0 -95 0 -95 -25 -95 -25 0 -25 0 -25 95 0 95 0
95 25 95 25 0 25 0 25 -95z m170 82 c18 -9 26 -22 28 -45 4 -43 -11 -61 -59
-68 -35 -6 -39 -10 -39 -35 0 -24 -4 -29 -25 -29 -25 0 -25 0 -25 95 l0 95 48
0 c26 0 58 -6 72 -13z m200 -7 c0 -17 -7 -20 -40 -20 -33 0 -40 -3 -40 -20 0
-17 7 -20 40 -20 29 0 40 -4 40 -15 0 -11 -11 -15 -40 -15 -36 0 -40 -2 -40
-25 0 -22 4 -25 40 -25 29 0 40 -4 40 -15 0 -12 -14 -15 -65 -15 l-65 0 0 95
0 95 65 0 c58 0 65 -2 65 -20z m164 14 c9 -3 16 -14 16 -23 0 -13 -8 -15 -45
-13 -63 5 -61 -20 3 -39 46 -14 47 -15 47 -54 0 -34 -4 -42 -29 -54 -37 -18
-109 -4 -114 22 -3 15 2 17 37 11 22 -4 47 -4 55 -1 25 10 7 35 -29 41 -33 7
-65 37 -65 63 0 39 74 66 124 47z m-2896 -599 l42 -17 0 -59 c0 -32 -2 -59 -5
-59 -3 0 -24 9 -47 21 -56 28 -142 36 -189 16 -20 -8 -49 -32 -65 -53 -27 -35
-29 -43 -29 -130 0 -100 10 -124 69 -168 41 -31 164 -29 224 2 l43 23 -3 -63
-3 -62 -60 -19 c-44 -14 -81 -17 -141 -15 -185 9 -294 121 -294 302 0 77 12
119 49 178 35 54 92 96 159 115 61 17 194 11 250 -12z m-1222 -12 c97 -52 101
-212 6 -268 l-29 -18 33 -29 c19 -17 57 -76 89 -139 l56 -109 -84 0 -83 0 -44
91 c-51 105 -76 129 -131 129 l-39 0 0 -110 0 -110 -75 0 -75 0 0 296 0 296
168 -4 c148 -3 172 -6 208 -25z m654 -33 l0 -60 -131 0 -130 0 3 -52 3 -53
118 -3 117 -3 0 -54 0 -55 -120 0 -120 0 0 -70 0 -70 135 0 135 0 0 -55 0 -55
-210 0 -210 0 0 295 0 295 205 0 205 0 0 -60z m890 -235 l0 -295 -75 0 -75 0
0 295 0 295 75 0 75 0 0 -295z m537 267 c63 -33 87 -74 91 -154 4 -56 0 -74
-18 -105 -40 -68 -92 -91 -222 -100 l-88 -6 0 -98 0 -99 -75 0 -75 0 0 296 0
296 173 -4 c154 -3 176 -6 214 -26z m613 -32 l0 -60 -131 0 -130 0 3 -52 3
-53 123 -3 122 -3 0 -54 0 -55 -125 0 -126 0 3 -67 3 -68 133 -3 132 -3 0 -54
0 -55 -210 0 -210 0 0 295 0 295 205 0 205 0 0 -60z m1073 -135 c203 -43 355
-203 418 -441 27 -100 37 -326 20 -446 -83 -575 -493 -1140 -943 -1300 -109
-39 -227 -54 -308 -41 -36 6 -66 10 -66 9 -1 0 -41 -80 -89 -176 -485 -971
-1262 -2186 -1387 -2168 -21 3 -23 8 -21 49 12 239 613 1412 1170 2281 l94
147 -40 51 c-51 65 -96 157 -123 257 -18 66 -22 106 -22 263 -1 159 2 199 22
290 124 553 508 1047 927 1192 139 48 236 57 348 33z m-3760 -850 c13 -5 17
-19 17 -59 l0 -53 -59 20 c-66 21 -128 17 -138 -10 -11 -27 10 -60 102 -163
101 -113 108 -114 129 -18 l12 53 57 3 57 3 0 -34 c0 -44 -24 -111 -56 -160
l-25 -38 56 -62 57 -62 -83 -3 c-76 -3 -85 -1 -100 19 l-17 22 -49 -21 c-181
-78 -374 7 -373 165 1 53 30 112 77 154 37 34 39 38 27 60 -23 42 -17 103 13
140 43 50 75 60 183 55 52 -2 103 -7 113 -11z m860 -147 c34 -81 65 -148 68
-148 3 0 35 68 70 150 l63 150 98 0 98 0 0 -295 0 -295 -70 0 -70 0 0 212 c0
116 -3 208 -7 204 -5 -4 -35 -71 -68 -149 l-60 -142 -51 -3 -51 -3 -66 153
-66 153 -1 -213 0 -213 -72 3 -73 3 -3 293 -2 293 100 -3 101 -3 62 -147z
m957 97 l0 -55 -130 0 -130 0 0 -55 0 -54 123 -3 122 -3 0 -55 0 -55 -122 -3
-123 -3 0 -64 0 -65 135 0 135 0 0 -60 0 -60 -210 0 -210 0 0 295 0 295 205 0
205 0 0 -55z"/>
<path d="M1393 5799 c-14 -37 -12 -42 15 -37 17 3 18 6 8 36 l-11 33 -12 -32z"/>
<path d="M1580 5815 c0 -26 14 -31 39 -16 19 12 6 41 -19 41 -15 0 -20 -7 -20
-25z"/>
<path d="M2066 5798 c-9 -35 -8 -38 14 -38 11 0 20 3 20 8 0 19 -13 52 -20 52
-4 0 -10 -10 -14 -22z"/>
<path d="M2480 5780 c0 -65 8 -72 48 -44 29 20 31 79 3 94 -42 22 -51 14 -51
-50z"/>
<path d="M2780 5785 c0 -64 15 -77 55 -51 19 12 25 25 25 51 0 36 -20 55 -59
55 -19 0 -21 -6 -21 -55z"/>
<path d="M3479 5813 c-13 -33 -2 -71 24 -87 38 -24 81 40 59 89 -17 37 -68 36
-83 -2z"/>
<path d="M4080 5815 c0 -22 4 -26 23 -23 14 2 22 10 22 23 0 13 -8 21 -22 23
-19 3 -23 -1 -23 -23z"/>
<path d="M4372 5818 c2 -15 10 -23 23 -23 13 0 21 8 23 23 3 18 -1 22 -23 22
-22 0 -26 -4 -23 -22z"/>
<path d="M5050 5815 c0 -22 4 -26 23 -23 14 2 22 10 22 23 0 13 -8 21 -22 23
-19 3 -23 -1 -23 -23z"/>
<path d="M1140 5105 l0 -75 55 0 c66 0 95 22 95 73 0 55 -30 77 -104 77 l-46
0 0 -75z"/>
<path d="M3210 5094 l0 -87 66 6 c75 6 100 22 110 74 5 27 1 37 -24 63 -27 27
-37 30 -91 30 l-61 0 0 -86z"/>
<path d="M1115 3920 c-35 -68 -6 -141 63 -160 38 -10 105 1 117 20 7 11 -135
170 -152 170 -7 0 -19 -13 -28 -30z"/>
</g>
</svg>
