<?xml version="1.0" standalone="no"?>
<!DOCTYPE svg PUBLIC "-//W3C//DTD SVG 20010904//EN"
 "http://www.w3.org/TR/2001/REC-SVG-20010904/DTD/svg10.dtd">
<svg version="1.0" xmlns="http://www.w3.org/2000/svg"
 width="700.000000pt" height="700.000000pt" viewBox="0 0 700.000000 700.000000"
 preserveAspectRatio="xMidYMid meet">
<metadata>
Created by potrace 1.14, written by Peter Selinger 2001-2017
</metadata>
<g transform="translate(0.000000,700.000000) scale(0.100000,-0.100000)"
fill="#000000" stroke="none">
<path d="M1275 6870 c-38 -3 -80 -12 -92 -18 -12 -7 -27 -11 -32 -10 -15 5
-220 -201 -490 -492 -28 -30 -55 -71 -61 -90 -5 -19 -18 -48 -28 -65 -17 -29
-18 -158 -17 -2985 1 -2871 1 -2956 20 -2994 26 -53 79 -102 134 -123 44 -17
164 -18 2451 -18 2257 0 2514 2 2598 20 37 9 105 80 129 135 12 31 14 400 11
2990 l-3 2955 -28 47 c-25 43 -86 95 -128 111 -10 3 -1057 7 -2328 8 -1270 1
-2315 6 -2322 10 -12 7 13 37 161 192 l75 78 2370 -2 c2216 -3 2372 -4 2405
-20 43 -21 96 -72 118 -113 15 -28 16 -237 19 -2401 1 -1303 3 -2623 3 -2932
l0 -563 50 0 c104 0 206 64 252 159 11 25 13 459 12 2937 0 1600 -4 2940 -8
2978 -4 38 -13 81 -21 96 -16 31 -73 78 -125 104 -33 16 -195 17 -2545 14
-1380 -1 -2541 -5 -2580 -8z m-235 -1005 c18 -22 6 -30 -40 -26 -53 4 -50 -12
8 -41 31 -15 47 -29 46 -41 -1 -9 -2 -25 -3 -35 -2 -37 -91 -51 -127 -21 -23
19 -6 28 40 23 63 -8 65 10 4 43 -39 21 -53 34 -54 51 -3 48 95 84 126 47z
m108 3 c7 -7 12 -22 12 -35 0 -51 61 -39 70 13 4 21 11 29 25 29 18 0 20 -7
20 -90 0 -83 -1 -90 -20 -90 -15 0 -21 8 -25 35 -4 31 -8 35 -35 35 -27 0 -31
-4 -35 -35 -4 -27 -10 -35 -25 -35 -18 0 -20 8 -23 79 -4 103 5 125 36 94z
m272 2 c14 -8 80 -151 80 -175 0 -11 -38 -4 -50 10 -7 8 -27 15 -45 15 -18 0
-38 -7 -45 -15 -11 -14 -50 -22 -50 -10 0 4 28 81 59 158 11 29 22 33 51 17z
m209 4 c40 -8 54 -33 40 -72 -8 -25 -7 -38 11 -71 20 -40 20 -41 1 -41 -10 0
-33 17 -50 37 -33 39 -47 37 -53 -7 -2 -17 -9 -25 -23 -25 -18 0 -20 8 -23 93
l-3 92 34 0 c19 0 49 -3 66 -6z m238 -8 c13 -13 -12 -26 -48 -26 -50 0 -49
-20 2 -36 42 -14 41 -27 -3 -34 -25 -4 -33 -10 -33 -25 0 -16 8 -21 38 -25 62
-8 47 -25 -25 -28 l-68 -3 0 97 0 97 66 -6 c37 -3 69 -8 71 -11z m241 1 c6 -7
25 -50 41 -95 28 -74 29 -82 13 -82 -10 0 -27 7 -38 15 -26 19 -56 19 -93 -2
-16 -10 -33 -14 -37 -10 -8 8 18 89 48 150 19 38 46 48 66 24z m177 -44 c17
-29 33 -52 36 -53 3 0 6 21 8 48 2 52 12 68 35 59 13 -5 16 -24 16 -97 0 -89
0 -90 -25 -90 -19 0 -33 13 -61 55 -20 30 -38 55 -39 55 0 0 -2 -21 -4 -47 -2
-51 -12 -70 -30 -59 -12 8 -16 168 -4 180 16 16 40 -2 68 -51z m280 33 c32
-21 45 -64 31 -106 -14 -43 -46 -60 -113 -60 l-53 0 0 96 0 97 56 -6 c30 -3
66 -13 79 -21z m273 15 c13 0 34 -12 47 -26 36 -35 34 -88 -4 -126 -26 -26
-36 -29 -91 -29 l-61 0 2 88 c1 48 3 90 6 94 2 4 20 6 41 4 20 -2 47 -4 60 -5z
m157 -86 c0 -83 -1 -90 -20 -90 -18 0 -20 8 -23 79 -3 91 1 109 25 104 16 -3
18 -15 18 -93z m173 86 c6 -1 12 -8 12 -16 0 -16 -8 -18 -52 -15 -44 2 -41
-18 6 -38 51 -23 72 -52 57 -81 -14 -25 -61 -43 -96 -37 -61 11 -57 46 5 46
55 0 58 15 5 35 -47 18 -61 40 -51 80 7 26 25 33 71 29 17 -1 36 -3 43 -3z
m210 -3 c20 -20 14 -28 -25 -28 -49 0 -61 -9 -69 -47 -8 -39 24 -76 60 -69 12
2 29 0 37 -5 12 -8 11 -12 -4 -23 -21 -16 -81 -11 -114 11 -47 31 -38 129 16
158 32 18 83 19 99 3z m200 -8 c32 -20 37 -33 34 -94 -2 -63 -74 -100 -135
-71 -40 19 -55 47 -52 98 4 74 84 109 153 67z m91 6 c6 -7 22 -39 35 -71 l23
-57 22 60 c23 66 45 92 62 75 8 -8 1 -36 -23 -94 -29 -74 -36 -84 -60 -87 -19
-2 -30 3 -38 19 -10 18 -60 157 -60 166 0 9 29 1 39 -11z m306 -6 c0 -10 -12
-16 -38 -18 -47 -4 -45 -22 4 -38 42 -14 41 -27 -3 -34 -25 -4 -33 -10 -33
-25 0 -16 8 -21 38 -25 62 -8 47 -25 -25 -28 l-68 -3 0 96 0 96 63 -3 c47 -2
62 -7 62 -18z m164 9 c17 -6 31 -14 32 -17 0 -4 2 -15 4 -26 2 -10 -1 -26 -7
-35 -8 -13 -5 -27 11 -59 l21 -42 -23 0 c-15 0 -29 10 -40 30 -10 17 -22 30
-28 30 -5 0 -12 1 -16 2 -5 1 -10 -11 -13 -28 -4 -21 -11 -29 -25 -29 -18 0
-20 8 -23 93 l-3 92 39 0 c22 0 53 -5 71 -11z m318 -15 c16 -22 16 -39 1 -63
-9 -15 -7 -25 10 -53 27 -43 27 -48 3 -48 -11 0 -30 13 -43 29 -32 41 -51 43
-58 6 -4 -21 -11 -30 -25 -30 -18 0 -20 7 -22 85 -1 55 3 88 10 93 21 13 110
0 124 -19z m198 6 c0 -10 -13 -17 -35 -20 -44 -6 -47 -33 -6 -40 39 -7 39 -23
1 -30 -44 -8 -42 -43 3 -50 56 -8 41 -25 -25 -28 l-63 -3 0 96 0 96 63 -3 c47
-2 62 -7 62 -18z m188 14 c9 -3 17 -12 17 -20 0 -15 1 -15 -53 -17 -41 -2 -57
-18 -57 -57 0 -41 15 -55 61 -56 24 0 44 -5 46 -11 6 -16 -53 -33 -87 -27 -40
9 -62 36 -67 87 -7 59 28 103 84 105 21 1 46 -1 56 -4z m102 -89 c0 -83 -1
-90 -20 -90 -18 0 -20 8 -23 79 -3 91 1 109 25 104 16 -3 18 -15 18 -93z m163
84 c60 -21 51 -95 -14 -114 -28 -8 -40 -17 -44 -35 -4 -16 -13 -25 -25 -25
-18 0 -20 8 -23 93 l-3 92 39 0 c22 0 53 -5 70 -11z m207 -9 c0 -10 -13 -17
-35 -20 -46 -7 -47 -33 -2 -40 18 -3 33 -9 33 -15 0 -5 -15 -12 -33 -15 -25
-4 -33 -10 -33 -25 0 -15 8 -21 33 -25 56 -8 41 -25 -25 -28 l-63 -3 0 96 0
96 63 -3 c47 -2 62 -7 62 -18z m176 4 c10 -13 10 -17 0 -24 -7 -4 -22 -5 -32
-3 -10 3 -26 2 -35 -1 -24 -9 -1 -32 41 -40 34 -7 38 -12 38 -61 0 -28 -3 -32
-27 -43 -40 -18 -116 0 -116 28 0 4 21 6 48 6 26 -1 49 3 52 9 3 5 -16 20 -41
32 -48 22 -63 43 -54 74 11 34 102 51 126 23z m-2940 -579 c78 -22 79 -23 79
-86 0 -33 -2 -59 -4 -59 -2 0 -23 9 -47 19 -60 27 -131 35 -174 21 -42 -14
-105 -74 -106 -103 -11 -179 8 -231 97 -262 50 -17 133 -11 190 14 l46 21 -4
-62 -3 -62 -55 -17 c-67 -21 -194 -18 -258 5 -66 24 -118 70 -149 134 -24 50
-28 69 -28 147 0 71 5 100 21 135 37 79 115 142 199 160 36 8 163 5 196 -5z
m-1194 -19 c106 -54 111 -216 9 -273 -17 -9 -15 -14 21 -61 22 -27 61 -91 87
-141 l47 -91 -84 0 -83 0 -39 80 c-51 104 -81 135 -134 138 l-41 3 0 -111 0
-110 -75 0 -75 0 0 296 0 296 168 -5 c127 -3 176 -9 199 -21z m663 -36 l0 -60
-130 0 -131 0 3 -50 c2 -31 8 -51 16 -52 26 -3 94 -6 157 -7 l65 -1 0 -55 0
-55 -120 0 -120 0 0 -70 0 -70 135 0 135 0 0 -55 0 -55 -210 0 -210 0 0 295 0
295 205 0 205 0 0 -60z m890 -235 l0 -295 -75 0 -75 0 0 295 0 295 75 0 75 0
0 -295z m537 263 c66 -33 87 -73 87 -164 1 -66 -2 -75 -30 -111 -44 -54 -125
-81 -251 -82 l-43 -1 0 -100 0 -100 -75 0 -75 0 0 296 0 296 170 -5 c155 -4
174 -7 217 -29z m613 -28 l0 -60 -130 0 -131 0 2 -45 c3 -58 7 -62 54 -62 22
-1 75 -1 118 -2 l77 -1 0 -55 0 -55 -125 0 -126 0 2 -59 c1 -33 5 -64 8 -69 3
-4 22 -9 41 -9 19 0 77 -1 128 -2 l92 -1 0 -55 0 -55 -210 0 -210 0 0 295 0
295 205 0 205 0 0 -60z m1121 -150 c107 -32 202 -105 277 -211 42 -59 93 -197
108 -291 11 -65 13 -334 3 -388 -31 -171 -83 -337 -154 -485 -42 -86 -91 -179
-108 -200 -4 -5 -35 -50 -70 -100 -76 -111 -267 -302 -369 -372 -192 -130
-396 -187 -578 -163 l-35 5 -100 -195 c-106 -207 -210 -405 -226 -430 -5 -8
-64 -114 -132 -235 -68 -121 -176 -305 -239 -410 -63 -104 -121 -201 -129
-215 -8 -14 -16 -27 -19 -30 -3 -3 -25 -36 -49 -74 -193 -309 -427 -633 -513
-712 -130 -119 -119 16 28 365 50 116 299 623 390 791 70 131 246 447 289 520
125 213 293 488 372 612 l94 148 -40 52 c-74 100 -126 226 -138 338 -8 71 -8
320 0 385 11 86 68 290 107 380 114 260 227 432 400 605 277 277 577 389 831
310z m-3805 -841 c8 -7 14 -31 14 -59 l0 -48 -40 14 c-37 13 -91 19 -132 16
-30 -3 -32 -40 -5 -81 53 -81 163 -192 182 -185 7 3 19 31 27 62 l14 56 57 4
57 4 0 -31 c0 -40 -26 -115 -57 -164 l-25 -39 34 -36 c18 -20 41 -44 51 -53
30 -29 19 -36 -58 -37 -63 -1 -79 2 -95 18 -20 20 -20 20 -90 -4 -124 -42
-239 -20 -305 56 -64 75 -56 168 22 257 43 49 44 52 32 84 -24 68 18 158 84
175 43 12 216 5 233 -9z m802 -9 c3 -8 15 -37 27 -65 12 -27 37 -85 55 -127
19 -43 37 -78 41 -78 9 0 99 198 123 273 5 15 19 17 106 17 l100 0 0 -295 0
-295 -70 0 -70 0 -1 198 c-1 108 -1 201 0 205 5 28 -21 -14 -49 -80 -18 -43
-45 -105 -60 -139 l-28 -60 -49 -3 -50 -2 -64 147 -64 147 -3 -207 -2 -207
-63 2 c-34 1 -67 4 -72 6 -7 2 -11 109 -13 294 l-3 290 101 -3 c81 -2 104 -6
108 -18z m1012 -35 l0 -55 -130 0 -130 0 0 -55 0 -55 83 -1 c45 -1 100 -2 122
-3 l39 -1 1 -45 c2 -63 -1 -68 -48 -68 -23 0 -77 0 -119 -1 l-78 -1 0 -65 0
-65 135 0 135 0 0 -60 0 -60 -210 0 -210 0 0 295 0 295 205 0 205 0 0 -55z"/>
<path d="M1393 5800 c-7 -19 -8 -32 -1 -36 18 -11 31 13 21 41 l-8 26 -12 -31z"/>
<path d="M1583 5824 c-3 -8 -1 -20 5 -26 15 -15 43 8 35 28 -7 19 -32 18 -40
-2z"/>
<path d="M2075 5809 c-18 -28 -16 -49 5 -49 21 0 24 12 11 44 -6 16 -9 17 -16
5z"/>
<path d="M2483 5784 c2 -64 15 -76 46 -45 36 36 26 84 -21 96 l-27 7 2 -58z"/>
<path d="M2780 5797 c0 -79 17 -95 58 -57 40 37 26 86 -26 96 l-32 7 0 -46z"/>
<path d="M3485 5816 c-31 -46 10 -110 54 -86 11 5 22 23 26 39 13 61 -48 97
-80 47z"/>
<path d="M4083 5824 c-9 -23 13 -40 32 -24 12 10 13 16 4 26 -15 18 -28 18
-36 -2z"/>
<path d="M4374 5829 c-3 -6 0 -17 8 -25 13 -13 16 -13 27 0 7 8 10 20 6 26 -8
13 -32 13 -41 -1z"/>
<path d="M5053 5824 c-9 -23 13 -40 32 -24 12 10 13 16 4 26 -15 18 -28 18
-36 -2z"/>
<path d="M1140 5106 l0 -76 50 0 c61 0 100 31 100 78 0 42 -31 65 -95 70 l-55
4 0 -76z"/>
<path d="M3210 5094 l0 -86 48 3 c73 4 102 18 118 55 19 45 18 48 -17 83 -27
28 -37 31 -90 31 l-59 0 0 -86z"/>
<path d="M1114 3915 c-19 -46 -18 -74 6 -112 17 -29 56 -46 105 -45 26 0 65
14 65 23 0 23 -131 169 -152 169 -5 0 -16 -16 -24 -35z"/>
</g>
</svg>
